<mxfile host="app.diagrams.net" modified="2022-06-12T07:21:16.710Z" agent="5.0 (Windows NT 10.0; Win64; x64) AppleWebKit/537.36 (KHTML, like Gecko) Chrome/102.0.0.0 Safari/537.36" etag="kfORsXqIlZ3B5T-mC9RE" version="20.0.0" type="github">
  <diagram id="F5SDwPnBYvrJA9drzq9g" name="Page-1">
    <mxGraphModel dx="1369" dy="661" grid="1" gridSize="10" guides="1" tooltips="1" connect="1" arrows="1" fold="1" page="1" pageScale="1" pageWidth="827" pageHeight="1169" math="0" shadow="0">
      <root>
        <mxCell id="0" />
        <mxCell id="1" parent="0" />
        <mxCell id="fU6tQXLZl2TWPpuWkvAG-45" value="" style="sketch=0;outlineConnect=0;fontColor=#232F3E;gradientColor=none;fillColor=#3F8624;strokeColor=none;dashed=0;verticalLabelPosition=bottom;verticalAlign=top;align=center;html=1;fontSize=12;fontStyle=0;aspect=fixed;pointerEvents=1;shape=mxgraph.aws4.camera;" vertex="1" parent="1">
          <mxGeometry x="110" y="250" width="78" height="78" as="geometry" />
        </mxCell>
        <mxCell id="fU6tQXLZl2TWPpuWkvAG-46" value="" style="sketch=0;outlineConnect=0;fontColor=#232F3E;gradientColor=none;fillColor=#3F8624;strokeColor=none;dashed=0;verticalLabelPosition=bottom;verticalAlign=top;align=center;html=1;fontSize=12;fontStyle=0;aspect=fixed;pointerEvents=1;shape=mxgraph.aws4.camera;" vertex="1" parent="1">
          <mxGeometry x="110" y="420" width="78" height="78" as="geometry" />
        </mxCell>
        <mxCell id="fU6tQXLZl2TWPpuWkvAG-47" value="" style="strokeColor=#dddddd;shadow=1;strokeWidth=1;rounded=1;absoluteArcSize=1;arcSize=2;" vertex="1" parent="1">
          <mxGeometry x="320" y="350" width="180" height="50" as="geometry" />
        </mxCell>
        <mxCell id="fU6tQXLZl2TWPpuWkvAG-48" value="&lt;div style=&quot;text-align: center;&quot;&gt;&lt;span style=&quot;background-color: initial;&quot;&gt;MQTT&amp;nbsp;&lt;/span&gt;&lt;span style=&quot;background-color: initial;&quot;&gt;Broder&amp;nbsp;&lt;/span&gt;&lt;span style=&quot;background-color: initial;&quot;&gt;Cluster&lt;/span&gt;&lt;/div&gt;" style="sketch=0;dashed=0;connectable=0;html=1;fillColor=#757575;strokeColor=none;shape=mxgraph.gcp2.cluster;part=1;labelPosition=right;verticalLabelPosition=middle;align=left;verticalAlign=middle;spacingLeft=5;fontSize=12;" vertex="1" parent="fU6tQXLZl2TWPpuWkvAG-47">
          <mxGeometry y="0.5" width="32" height="32" relative="1" as="geometry">
            <mxPoint x="5" y="-16" as="offset" />
          </mxGeometry>
        </mxCell>
        <mxCell id="fU6tQXLZl2TWPpuWkvAG-49" value="" style="shape=image;verticalLabelPosition=bottom;labelBackgroundColor=default;verticalAlign=top;aspect=fixed;imageAspect=0;image=https://is1-ssl.mzstatic.com/image/thumb/Purple114/v4/c5/90/f9/c590f9ae-b6f5-b412-1456-228c4067a8d3/AppIcon-85-220-0-4-2x.png/1200x630bb.png;" vertex="1" parent="1">
          <mxGeometry x="637" y="520" width="100" height="100" as="geometry" />
        </mxCell>
        <mxCell id="fU6tQXLZl2TWPpuWkvAG-50" value="" style="shape=image;verticalLabelPosition=bottom;labelBackgroundColor=default;verticalAlign=top;aspect=fixed;imageAspect=0;image=https://upload.wikimedia.org/wikipedia/commons/2/2d/Mobile-Smartphone-icon.png;" vertex="1" parent="1">
          <mxGeometry x="630" y="380" width="112" height="112" as="geometry" />
        </mxCell>
        <mxCell id="fU6tQXLZl2TWPpuWkvAG-51" value="" style="shape=image;verticalLabelPosition=bottom;labelBackgroundColor=default;verticalAlign=top;aspect=fixed;imageAspect=0;image=https://findicons.com/files/icons/315/hydropro_v2/512/my_computer.png;" vertex="1" parent="1">
          <mxGeometry x="642" y="120" width="102" height="102" as="geometry" />
        </mxCell>
        <mxCell id="fU6tQXLZl2TWPpuWkvAG-52" value="" style="shape=image;verticalLabelPosition=bottom;labelBackgroundColor=default;verticalAlign=top;aspect=fixed;imageAspect=0;image=https://cdn-icons-png.flaticon.com/512/1803/1803974.png;" vertex="1" parent="1">
          <mxGeometry x="630" y="250" width="114" height="114" as="geometry" />
        </mxCell>
        <mxCell id="fU6tQXLZl2TWPpuWkvAG-53" value="" style="endArrow=block;html=1;rounded=0;entryX=0;entryY=0;entryDx=0;entryDy=0;strokeWidth=5;fillColor=#dae8fc;strokeColor=#6c8ebf;exitX=1.026;exitY=0.5;exitDx=0;exitDy=0;exitPerimeter=0;endFill=1;" edge="1" parent="1" source="fU6tQXLZl2TWPpuWkvAG-45" target="fU6tQXLZl2TWPpuWkvAG-47">
          <mxGeometry width="50" height="50" relative="1" as="geometry">
            <mxPoint x="410" y="390" as="sourcePoint" />
            <mxPoint x="460" y="340" as="targetPoint" />
          </mxGeometry>
        </mxCell>
        <mxCell id="fU6tQXLZl2TWPpuWkvAG-54" value="" style="endArrow=block;html=1;rounded=0;entryX=0;entryY=1;entryDx=0;entryDy=0;strokeWidth=5;fillColor=#dae8fc;strokeColor=#6c8ebf;endFill=1;" edge="1" parent="1" target="fU6tQXLZl2TWPpuWkvAG-47">
          <mxGeometry width="50" height="50" relative="1" as="geometry">
            <mxPoint x="190" y="459" as="sourcePoint" />
            <mxPoint x="330" y="385" as="targetPoint" />
          </mxGeometry>
        </mxCell>
        <mxCell id="fU6tQXLZl2TWPpuWkvAG-55" value="&lt;b&gt;Subscribe&lt;/b&gt;" style="text;html=1;strokeColor=#6c8ebf;fillColor=#dae8fc;align=center;verticalAlign=middle;whiteSpace=wrap;rounded=0;" vertex="1" parent="1">
          <mxGeometry x="230" y="273" width="80" height="30" as="geometry" />
        </mxCell>
        <mxCell id="fU6tQXLZl2TWPpuWkvAG-56" value="&lt;b&gt;Publish&lt;/b&gt;" style="text;html=1;strokeColor=#82b366;fillColor=#d5e8d4;align=center;verticalAlign=middle;whiteSpace=wrap;rounded=0;" vertex="1" parent="1">
          <mxGeometry x="500" y="492" width="60" height="30" as="geometry" />
        </mxCell>
        <mxCell id="fU6tQXLZl2TWPpuWkvAG-57" value="&lt;b style=&quot;font-family: Helvetica; font-style: normal; font-variant-ligatures: normal; font-variant-caps: normal; letter-spacing: normal; orphans: 2; text-indent: 0px; text-transform: none; widows: 2; word-spacing: 0px; -webkit-text-stroke-width: 0px; background-color: rgb(248, 249, 250); text-decoration-thickness: initial; text-decoration-style: initial; text-decoration-color: initial;&quot;&gt;&lt;font color=&quot;#0066cc&quot; style=&quot;font-size: 24px;&quot;&gt;Subscriber&lt;/font&gt;&lt;/b&gt;" style="text;whiteSpace=wrap;html=1;align=center;" vertex="1" parent="1">
          <mxGeometry x="220" y="70" width="90" height="30" as="geometry" />
        </mxCell>
        <mxCell id="fU6tQXLZl2TWPpuWkvAG-58" value="&lt;b&gt;Subscribe&lt;/b&gt;" style="text;html=1;strokeColor=#6c8ebf;fillColor=#dae8fc;align=center;verticalAlign=middle;whiteSpace=wrap;rounded=0;" vertex="1" parent="1">
          <mxGeometry x="230" y="445" width="80" height="30" as="geometry" />
        </mxCell>
        <mxCell id="fU6tQXLZl2TWPpuWkvAG-59" value="" style="endArrow=block;html=1;rounded=0;entryX=0;entryY=0.5;entryDx=0;entryDy=0;strokeWidth=5;fillColor=#d5e8d4;strokeColor=#82b366;exitX=1;exitY=0;exitDx=0;exitDy=0;endFill=1;" edge="1" parent="1" source="fU6tQXLZl2TWPpuWkvAG-47" target="fU6tQXLZl2TWPpuWkvAG-51">
          <mxGeometry width="50" height="50" relative="1" as="geometry">
            <mxPoint x="200.02800000000002" y="299" as="sourcePoint" />
            <mxPoint x="330" y="360" as="targetPoint" />
          </mxGeometry>
        </mxCell>
        <mxCell id="fU6tQXLZl2TWPpuWkvAG-60" value="" style="endArrow=block;html=1;rounded=0;entryX=0;entryY=0.5;entryDx=0;entryDy=0;strokeWidth=5;fillColor=#d5e8d4;strokeColor=#82b366;exitX=1;exitY=0.25;exitDx=0;exitDy=0;endFill=1;" edge="1" parent="1" source="fU6tQXLZl2TWPpuWkvAG-47" target="fU6tQXLZl2TWPpuWkvAG-52">
          <mxGeometry width="50" height="50" relative="1" as="geometry">
            <mxPoint x="510" y="360" as="sourcePoint" />
            <mxPoint x="652" y="181" as="targetPoint" />
          </mxGeometry>
        </mxCell>
        <mxCell id="fU6tQXLZl2TWPpuWkvAG-61" value="" style="endArrow=block;html=1;rounded=0;entryX=0;entryY=0.5;entryDx=0;entryDy=0;strokeWidth=5;fillColor=#d5e8d4;strokeColor=#82b366;exitX=1;exitY=0.75;exitDx=0;exitDy=0;endFill=1;" edge="1" parent="1" source="fU6tQXLZl2TWPpuWkvAG-47" target="fU6tQXLZl2TWPpuWkvAG-50">
          <mxGeometry width="50" height="50" relative="1" as="geometry">
            <mxPoint x="520" y="370" as="sourcePoint" />
            <mxPoint x="640" y="317" as="targetPoint" />
          </mxGeometry>
        </mxCell>
        <mxCell id="fU6tQXLZl2TWPpuWkvAG-62" value="" style="endArrow=block;html=1;rounded=0;entryX=0;entryY=0.5;entryDx=0;entryDy=0;strokeWidth=5;fillColor=#d5e8d4;strokeColor=#82b366;exitX=1;exitY=1;exitDx=0;exitDy=0;endFill=1;" edge="1" parent="1" source="fU6tQXLZl2TWPpuWkvAG-47" target="fU6tQXLZl2TWPpuWkvAG-49">
          <mxGeometry width="50" height="50" relative="1" as="geometry">
            <mxPoint x="530" y="380" as="sourcePoint" />
            <mxPoint x="640" y="446" as="targetPoint" />
          </mxGeometry>
        </mxCell>
        <mxCell id="fU6tQXLZl2TWPpuWkvAG-63" value="&lt;b&gt;Publish&lt;/b&gt;" style="text;html=1;strokeColor=#82b366;fillColor=#d5e8d4;align=center;verticalAlign=middle;whiteSpace=wrap;rounded=0;" vertex="1" parent="1">
          <mxGeometry x="510" y="230" width="60" height="30" as="geometry" />
        </mxCell>
        <mxCell id="fU6tQXLZl2TWPpuWkvAG-64" value="&lt;b&gt;Publish&lt;/b&gt;" style="text;html=1;strokeColor=#82b366;fillColor=#d5e8d4;align=center;verticalAlign=middle;whiteSpace=wrap;rounded=0;" vertex="1" parent="1">
          <mxGeometry x="570" y="340" width="60" height="30" as="geometry" />
        </mxCell>
        <mxCell id="fU6tQXLZl2TWPpuWkvAG-65" value="&lt;b&gt;Publish&lt;/b&gt;" style="text;html=1;strokeColor=#82b366;fillColor=#d5e8d4;align=center;verticalAlign=middle;whiteSpace=wrap;rounded=0;" vertex="1" parent="1">
          <mxGeometry x="570" y="380" width="60" height="30" as="geometry" />
        </mxCell>
        <mxCell id="fU6tQXLZl2TWPpuWkvAG-66" value="&lt;b style=&quot;font-family: Helvetica; font-style: normal; font-variant-ligatures: normal; font-variant-caps: normal; letter-spacing: normal; orphans: 2; text-indent: 0px; text-transform: none; widows: 2; word-spacing: 0px; -webkit-text-stroke-width: 0px; background-color: rgb(248, 249, 250); text-decoration-thickness: initial; text-decoration-style: initial; text-decoration-color: initial;&quot;&gt;&lt;font color=&quot;#009900&quot; style=&quot;font-size: 24px;&quot;&gt;Publisher&lt;/font&gt;&lt;/b&gt;" style="text;whiteSpace=wrap;html=1;align=center;" vertex="1" parent="1">
          <mxGeometry x="510" y="70" width="80" height="30" as="geometry" />
        </mxCell>
      </root>
    </mxGraphModel>
  </diagram>
</mxfile>
